<svg xmlns="http://www.w3.org/2000/svg" xmlns:xlink="http://www.w3.org/1999/xlink" width="500" zoomAndPan="magnify" viewBox="0 0 375 374.999991" height="500" preserveAspectRatio="xMidYMid meet" version="1.0"><defs><g/><clipPath id="3af2a21ac3"><path d="M 38 22 L 56 22 L 56 89 L 38 89 Z M 38 22 " clip-rule="nonzero"/></clipPath><clipPath id="bd841a3bfa"><path d="M 106.757812 64.035156 L 26.925781 105.585938 L -14.625 25.753906 L 65.207031 -15.800781 Z M 106.757812 64.035156 " clip-rule="nonzero"/></clipPath><clipPath id="82728b2718"><path d="M 106.757812 64.035156 L 26.925781 105.585938 L -14.625 25.753906 L 65.207031 -15.800781 Z M 106.757812 64.035156 " clip-rule="nonzero"/></clipPath><clipPath id="63624c7a46"><path d="M 65 14 L 83 14 L 83 81 L 65 81 Z M 65 14 " clip-rule="nonzero"/></clipPath><clipPath id="9222157a31"><path d="M 106.757812 64.035156 L 26.925781 105.585938 L -14.625 25.753906 L 65.207031 -15.800781 Z M 106.757812 64.035156 " clip-rule="nonzero"/></clipPath><clipPath id="88f03917f9"><path d="M 106.757812 64.035156 L 26.925781 105.585938 L -14.625 25.753906 L 65.207031 -15.800781 Z M 106.757812 64.035156 " clip-rule="nonzero"/></clipPath><clipPath id="581d26f4a0"><path d="M 8 9 L 27 9 L 27 76 L 8 76 Z M 8 9 " clip-rule="nonzero"/></clipPath><clipPath id="9721ac2fc1"><path d="M 106.757812 64.035156 L 26.925781 105.585938 L -14.625 25.753906 L 65.207031 -15.800781 Z M 106.757812 64.035156 " clip-rule="nonzero"/></clipPath><clipPath id="45812608fb"><path d="M 106.757812 64.035156 L 26.925781 105.585938 L -14.625 25.753906 L 65.207031 -15.800781 Z M 106.757812 64.035156 " clip-rule="nonzero"/></clipPath></defs><g clip-path="url(#3af2a21ac3)"><g clip-path="url(#bd841a3bfa)"><g clip-path="url(#82728b2718)"><path fill="#ffffff" d="M 39.316406 30.222656 C 38.921875 46.800781 38.527344 63.378906 38.136719 79.957031 C 38.035156 84.105469 41.3125 88.242188 45.671875 88.269531 C 49.882812 88.296875 53.878906 85.164062 53.984375 80.734375 C 54.378906 64.15625 54.773438 47.578125 55.167969 31.003906 C 55.265625 26.855469 51.988281 22.714844 47.632812 22.6875 C 43.421875 22.664062 39.421875 25.792969 39.316406 30.222656 Z M 39.316406 30.222656 " fill-opacity="1" fill-rule="nonzero"/></g></g></g><g clip-path="url(#63624c7a46)"><g clip-path="url(#9222157a31)"><g clip-path="url(#88f03917f9)"><path fill="#ffffff" d="M 67.046875 22.226562 C 66.652344 38.804688 66.257812 55.378906 65.863281 71.957031 C 65.765625 76.105469 69.042969 80.242188 73.402344 80.269531 C 77.609375 80.296875 81.609375 77.164062 81.714844 72.734375 C 82.109375 56.15625 82.503906 39.582031 82.898438 23.003906 C 82.996094 18.855469 79.71875 14.71875 75.363281 14.691406 C 71.152344 14.664062 67.152344 17.796875 67.046875 22.226562 Z M 67.046875 22.226562 " fill-opacity="1" fill-rule="nonzero"/></g></g></g><g clip-path="url(#581d26f4a0)"><g clip-path="url(#9721ac2fc1)"><g clip-path="url(#45812608fb)"><path fill="#ffffff" d="M 10.183594 16.976562 C 9.789062 33.554688 9.394531 50.132812 9 66.707031 C 8.898438 70.855469 12.175781 74.996094 16.535156 75.023438 C 20.746094 75.046875 24.742188 71.917969 24.847656 67.488281 C 25.242188 50.910156 25.636719 34.332031 26.03125 17.757812 C 26.128906 13.609375 22.851562 9.46875 18.496094 9.441406 C 14.285156 9.414062 10.289062 12.546875 10.183594 16.976562 Z M 10.183594 16.976562 " fill-opacity="1" fill-rule="nonzero"/></g></g></g><g fill="#ffffff" fill-opacity="1"><g transform="translate(83.900961, 66.983651)"><g><path d="M 11.296875 -8.5 L 30.3125 -8.5 L 30.3125 0 L 1.828125 0 L 1.828125 -39.484375 L 11.296875 -39.484375 Z M 11.296875 -8.5 "/></g></g></g><g fill="#ffffff" fill-opacity="1"><g transform="translate(114.944248, 66.983651)"><g><path d="M 21.265625 -39.3125 C 26.890625 -39.3125 31.6875 -37.328125 35.65625 -33.359375 C 39.625 -29.378906 41.609375 -24.578125 41.609375 -18.953125 C 41.609375 -13.328125 39.625 -8.53125 35.65625 -4.5625 C 31.6875 -0.59375 26.890625 1.390625 21.265625 1.390625 C 15.628906 1.390625 10.828125 -0.59375 6.859375 -4.5625 C 2.890625 -8.53125 0.90625 -13.328125 0.90625 -18.953125 C 0.90625 -24.578125 2.890625 -29.378906 6.859375 -33.359375 C 10.828125 -37.328125 15.628906 -39.3125 21.265625 -39.3125 Z M 29.640625 -10.578125 C 31.953125 -12.878906 33.109375 -15.671875 33.109375 -18.953125 C 33.109375 -22.234375 31.953125 -25.03125 29.640625 -27.34375 C 27.335938 -29.644531 24.546875 -30.796875 21.265625 -30.796875 C 17.984375 -30.796875 15.1875 -29.644531 12.875 -27.34375 C 10.570312 -25.03125 9.421875 -22.234375 9.421875 -18.953125 C 9.421875 -15.671875 10.570312 -12.878906 12.875 -10.578125 C 15.269531 -8.265625 18.066406 -7.109375 21.265625 -7.109375 C 24.460938 -7.109375 27.253906 -8.265625 29.640625 -10.578125 Z M 29.640625 -10.578125 "/></g></g></g><g fill="#ffffff" fill-opacity="1"><g transform="translate(157.469288, 66.983651)"><g><path d="M 27.640625 -39.484375 L 37.125 -39.484375 L 37.125 0 L 10.9375 -19.25 L 10.9375 0 L 1.453125 0 L 1.453125 -39.484375 L 27.640625 -19.3125 Z M 27.640625 -39.484375 "/></g></g></g><g fill="#ffffff" fill-opacity="1"><g transform="translate(196.04558, 66.983651)"><g><path d="M 21.265625 -39.3125 C 26.890625 -39.3125 31.6875 -37.328125 35.65625 -33.359375 C 39.625 -29.378906 41.609375 -24.578125 41.609375 -18.953125 C 41.609375 -13.328125 39.625 -8.53125 35.65625 -4.5625 C 31.6875 -0.59375 26.890625 1.390625 21.265625 1.390625 C 15.628906 1.390625 10.828125 -0.59375 6.859375 -4.5625 C 2.890625 -8.53125 0.90625 -13.328125 0.90625 -18.953125 C 0.90625 -24.578125 2.890625 -29.378906 6.859375 -33.359375 C 10.828125 -37.328125 15.628906 -39.3125 21.265625 -39.3125 Z M 29.640625 -10.578125 C 31.953125 -12.878906 33.109375 -15.671875 33.109375 -18.953125 C 33.109375 -22.234375 31.953125 -25.03125 29.640625 -27.34375 C 27.335938 -29.644531 24.546875 -30.796875 21.265625 -30.796875 C 17.984375 -30.796875 15.1875 -29.644531 12.875 -27.34375 C 10.570312 -25.03125 9.421875 -22.234375 9.421875 -18.953125 C 9.421875 -15.671875 10.570312 -12.878906 12.875 -10.578125 C 15.269531 -8.265625 18.066406 -7.109375 21.265625 -7.109375 C 24.460938 -7.109375 27.253906 -8.265625 29.640625 -10.578125 Z M 29.640625 -10.578125 "/></g></g></g></svg>