<svg xmlns="http://www.w3.org/2000/svg" xmlns:xlink="http://www.w3.org/1999/xlink" width="200" zoomAndPan="magnify" viewBox="0 0 150 149.999998" height="200" preserveAspectRatio="xMidYMid meet" version="1.0"><defs><g/><clipPath id="dd92354b29"><path d="M 15 9 L 23 9 L 23 36 L 15 36 Z M 15 9 " clip-rule="nonzero"/></clipPath><clipPath id="287eee9542"><path d="M 42.703125 25.613281 L 10.769531 42.234375 L -5.851562 10.300781 L 26.082031 -6.320312 Z M 42.703125 25.613281 " clip-rule="nonzero"/></clipPath><clipPath id="6cfb3cb2b3"><path d="M 42.703125 25.613281 L 10.769531 42.234375 L -5.851562 10.300781 L 26.082031 -6.320312 Z M 42.703125 25.613281 " clip-rule="nonzero"/></clipPath><clipPath id="2335680442"><path d="M 26 5 L 34 5 L 34 33 L 26 33 Z M 26 5 " clip-rule="nonzero"/></clipPath><clipPath id="25bc503be7"><path d="M 42.703125 25.613281 L 10.769531 42.234375 L -5.851562 10.300781 L 26.082031 -6.320312 Z M 42.703125 25.613281 " clip-rule="nonzero"/></clipPath><clipPath id="e3c86c0830"><path d="M 42.703125 25.613281 L 10.769531 42.234375 L -5.851562 10.300781 L 26.082031 -6.320312 Z M 42.703125 25.613281 " clip-rule="nonzero"/></clipPath><clipPath id="0c66b64cf2"><path d="M 3 3 L 11 3 L 11 31 L 3 31 Z M 3 3 " clip-rule="nonzero"/></clipPath><clipPath id="9f0f881020"><path d="M 42.703125 25.613281 L 10.769531 42.234375 L -5.851562 10.300781 L 26.082031 -6.320312 Z M 42.703125 25.613281 " clip-rule="nonzero"/></clipPath><clipPath id="b3bf082d2c"><path d="M 42.703125 25.613281 L 10.769531 42.234375 L -5.851562 10.300781 L 26.082031 -6.320312 Z M 42.703125 25.613281 " clip-rule="nonzero"/></clipPath><clipPath id="743612455e"><path d="M 45 10 L 62.761719 10 L 62.761719 27 L 45 27 Z M 45 10 " clip-rule="nonzero"/></clipPath><clipPath id="ecb0a68e70"><rect x="0" width="63" y="0" height="33"/></clipPath></defs><g clip-path="url(#dd92354b29)"><g clip-path="url(#287eee9542)"><g clip-path="url(#6cfb3cb2b3)"><path fill="#ffffff" d="M 15.726562 12.089844 C 15.570312 18.71875 15.410156 25.351562 15.253906 31.980469 C 15.214844 33.640625 16.523438 35.296875 18.269531 35.308594 C 19.953125 35.316406 21.550781 34.066406 21.59375 32.292969 C 21.75 25.664062 21.910156 19.03125 22.066406 12.402344 C 22.105469 10.742188 20.796875 9.085938 19.054688 9.074219 C 17.367188 9.066406 15.769531 10.316406 15.726562 12.089844 Z M 15.726562 12.089844 " fill-opacity="1" fill-rule="nonzero"/></g></g></g><g clip-path="url(#2335680442)"><g clip-path="url(#25bc503be7)"><g clip-path="url(#e3c86c0830)"><path fill="#ffffff" d="M 26.820312 8.890625 C 26.660156 15.519531 26.503906 22.152344 26.347656 28.78125 C 26.304688 30.441406 27.617188 32.097656 29.359375 32.109375 C 31.042969 32.117188 32.644531 30.867188 32.6875 29.09375 C 32.84375 22.464844 33 15.832031 33.160156 9.203125 C 33.199219 7.542969 31.886719 5.886719 30.144531 5.875 C 28.460938 5.867188 26.863281 7.117188 26.820312 8.890625 Z M 26.820312 8.890625 " fill-opacity="1" fill-rule="nonzero"/></g></g></g><g clip-path="url(#0c66b64cf2)"><g clip-path="url(#9f0f881020)"><g clip-path="url(#b3bf082d2c)"><path fill="#ffffff" d="M 4.074219 6.792969 C 3.914062 13.421875 3.757812 20.050781 3.597656 26.683594 C 3.558594 28.34375 4.871094 30 6.613281 30.007812 C 8.296875 30.019531 9.898438 28.765625 9.9375 26.996094 C 10.097656 20.363281 10.253906 13.734375 10.414062 7.101562 C 10.453125 5.441406 9.140625 3.789062 7.398438 3.777344 C 5.714844 3.765625 4.113281 5.019531 4.074219 6.792969 Z M 4.074219 6.792969 " fill-opacity="1" fill-rule="nonzero"/></g></g></g><g transform="matrix(1, 0, 0, 1, 33, 1)"><g clip-path="url(#ecb0a68e70)"><g fill="#ffffff" fill-opacity="1"><g transform="translate(0.560384, 25.793463)"><g><path d="M 4.515625 -3.40625 L 12.125 -3.40625 L 12.125 0 L 0.734375 0 L 0.734375 -15.796875 L 4.515625 -15.796875 Z M 4.515625 -3.40625 "/></g></g></g><g fill="#ffffff" fill-opacity="1"><g transform="translate(12.977699, 25.793463)"><g><path d="M 8.5 -15.71875 C 10.75 -15.71875 12.671875 -14.925781 14.265625 -13.34375 C 15.847656 -11.75 16.640625 -9.828125 16.640625 -7.578125 C 16.640625 -5.328125 15.847656 -3.410156 14.265625 -1.828125 C 12.671875 -0.234375 10.75 0.5625 8.5 0.5625 C 6.25 0.5625 4.332031 -0.234375 2.75 -1.828125 C 1.15625 -3.410156 0.359375 -5.328125 0.359375 -7.578125 C 0.359375 -9.828125 1.15625 -11.75 2.75 -13.34375 C 4.332031 -14.925781 6.25 -15.71875 8.5 -15.71875 Z M 11.859375 -4.234375 C 12.773438 -5.148438 13.234375 -6.265625 13.234375 -7.578125 C 13.234375 -8.890625 12.773438 -10.007812 11.859375 -10.9375 C 10.929688 -11.851562 9.8125 -12.3125 8.5 -12.3125 C 7.1875 -12.3125 6.070312 -11.851562 5.15625 -10.9375 C 4.226562 -10.007812 3.765625 -8.890625 3.765625 -7.578125 C 3.765625 -6.265625 4.226562 -5.148438 5.15625 -4.234375 C 6.101562 -3.304688 7.21875 -2.84375 8.5 -2.84375 C 9.78125 -2.84375 10.898438 -3.304688 11.859375 -4.234375 Z M 11.859375 -4.234375 "/></g></g></g><g fill="#ffffff" fill-opacity="1"><g transform="translate(29.987716, 25.793463)"><g><path d="M 11.0625 -15.796875 L 14.84375 -15.796875 L 14.84375 0 L 4.375 -7.703125 L 4.375 0 L 0.578125 0 L 0.578125 -15.796875 L 11.0625 -7.71875 Z M 11.0625 -15.796875 "/></g></g></g><g clip-path="url(#743612455e)"><g fill="#ffffff" fill-opacity="1"><g transform="translate(45.418232, 25.793463)"><g><path d="M 8.5 -15.71875 C 10.75 -15.71875 12.671875 -14.925781 14.265625 -13.34375 C 15.847656 -11.75 16.640625 -9.828125 16.640625 -7.578125 C 16.640625 -5.328125 15.847656 -3.410156 14.265625 -1.828125 C 12.671875 -0.234375 10.75 0.5625 8.5 0.5625 C 6.25 0.5625 4.332031 -0.234375 2.75 -1.828125 C 1.15625 -3.410156 0.359375 -5.328125 0.359375 -7.578125 C 0.359375 -9.828125 1.15625 -11.75 2.75 -13.34375 C 4.332031 -14.925781 6.25 -15.71875 8.5 -15.71875 Z M 11.859375 -4.234375 C 12.773438 -5.148438 13.234375 -6.265625 13.234375 -7.578125 C 13.234375 -8.890625 12.773438 -10.007812 11.859375 -10.9375 C 10.929688 -11.851562 9.8125 -12.3125 8.5 -12.3125 C 7.1875 -12.3125 6.070312 -11.851562 5.15625 -10.9375 C 4.226562 -10.007812 3.765625 -8.890625 3.765625 -7.578125 C 3.765625 -6.265625 4.226562 -5.148438 5.15625 -4.234375 C 6.101562 -3.304688 7.21875 -2.84375 8.5 -2.84375 C 9.78125 -2.84375 10.898438 -3.304688 11.859375 -4.234375 Z M 11.859375 -4.234375 "/></g></g></g></g></g></g></svg>