<?xml version="1.0" encoding="UTF-8"?>
<svg version="1.1" xmlns="http://www.w3.org/2000/svg" width="409" height="610">
<path d="M0 0 C0.62530043 0.18702075 1.25060085 0.3740415 1.89484978 0.56672955 C1.94164281 24.72397269 1.97687437 48.881209 1.99847412 73.03848839 C2.00877138 84.25600674 2.02280201 95.47349688 2.04572868 106.69099712 C2.06571009 116.47213711 2.07857747 126.25325666 2.08302677 136.0344165 C2.08562611 141.20983717 2.09170325 146.38519937 2.10630989 151.56060123 C2.11996895 156.44017567 2.12405571 161.31966801 2.12106514 166.19925976 C2.1216116 167.98212983 2.12553914 169.76500289 2.13326073 171.54785633 C2.21909427 192.40382191 -0.22278698 208.4085767 -14.72233772 224.3440733 C-16.10515022 225.56672955 -16.10515022 225.56672955 -18.10515022 225.56672955 C-18.43515022 226.55672955 -18.76515022 227.54672955 -19.10515022 228.56672955 C-21.38717748 229.90326213 -23.59719392 231.06921919 -25.98015022 232.19172955 C-26.61823616 232.50368267 -27.2563221 232.8156358 -27.91374397 233.13704205 C-38.15738084 238.09846951 -52.18345908 238.68030526 -63.23405647 235.6253233 C-69.27170385 233.35140415 -74.84764478 230.29994594 -80.10515022 226.56672955 C-80.93015022 226.00985455 -81.75515022 225.45297955 -82.60515022 224.87922955 C-83.10015022 224.44610455 -83.59515022 224.01297955 -84.10515022 223.56672955 C-84.10515022 222.90672955 -84.10515022 222.24672955 -84.10515022 221.56672955 C-85.42515022 220.90672955 -86.74515022 220.24672955 -88.10515022 219.56672955 C-88.10515022 218.90672955 -88.10515022 218.24672955 -88.10515022 217.56672955 C-89.09515022 217.23672955 -90.08515022 216.90672955 -91.10515022 216.56672955 C-93.29265022 214.62922955 -93.29265022 214.62922955 -95.10515022 212.56672955 C-95.10515022 211.90672955 -95.10515022 211.24672955 -95.10515022 210.56672955 C-95.68490608 210.30931988 -96.26466194 210.05191021 -96.86198616 209.78670025 C-100.97959223 207.5472926 -104.05000496 204.03309716 -107.35515022 200.75422955 C-108.10022835 200.04202251 -108.84530647 199.32981548 -109.61296272 198.59602642 C-110.31679085 197.89928814 -111.02061897 197.20254986 -111.74577522 196.4846983 C-112.39062874 195.85329937 -113.03548225 195.22190044 -113.69987679 194.57136822 C-115.44772031 192.07804939 -115.38268853 190.54768464 -115.10515022 187.56672955 C-114.11515022 187.23672955 -113.12515022 186.90672955 -112.10515022 186.56672955 C-111.77515022 185.90672955 -111.44515022 185.24672955 -111.10515022 184.56672955 C-110.10515022 182.56672955 -110.10515022 182.56672955 -107.10515022 181.56672955 C-106.81640022 180.98922955 -106.52765022 180.41172955 -106.23015022 179.81672955 C-104.72500021 176.80642952 -102.53137059 174.86525411 -100.10515022 172.56672955 C-96.32235828 173.86256485 -93.99369105 175.31351898 -91.23015022 178.19172955 C-90.54436897 178.90200298 -89.85858772 179.61227642 -89.15202522 180.3440733 C-86.62631628 183.08668473 -84.20295257 185.90846772 -81.78093147 188.7425108 C-80.17378871 190.49201119 -78.52154931 191.96121528 -76.66765022 193.44172955 C-75.82202522 194.14297955 -74.97640022 194.84422955 -74.10515022 195.56672955 C-74.10515022 196.22672955 -74.10515022 196.88672955 -74.10515022 197.56672955 C-73.52120491 197.85290142 -72.9372596 198.1390733 -72.33561897 198.43391705 C-70.96417068 199.13044946 -69.60762541 199.85863918 -68.28093147 200.63704205 C-63.18082192 203.52389651 -58.9306455 204.54588749 -53.10515022 203.56672955 C-47.37793224 201.81960106 -42.85678279 199.34153463 -39.10515022 194.56672955 C-35.83934409 187.21866574 -35.95783076 179.02511229 -35.99162483 171.12141705 C-35.99140579 169.75904163 -35.99140579 169.75904163 -35.99118233 168.36914349 C-35.99187411 165.3933138 -35.99963184 162.41754818 -36.00749397 159.44172955 C-36.00936077 157.3680808 -36.01078344 155.29443162 -36.01178169 153.22078228 C-36.01558629 147.78255766 -36.02539889 142.34436005 -36.03648567 136.90614605 C-36.04674414 131.34900052 -36.0512888 125.79185058 -36.0563221 120.2346983 C-36.06702312 109.34536356 -36.08407468 98.4560488 -36.10515022 87.56672955 C-37.09515022 87.23672955 -38.08515022 86.90672955 -39.10515022 86.56672955 C-39.10515022 87.22672955 -39.10515022 87.88672955 -39.10515022 88.56672955 C-39.76515022 88.56672955 -40.42515022 88.56672955 -41.10515022 88.56672955 C-41.35265022 89.18547955 -41.60015022 89.80422955 -41.85515022 90.44172955 C-43.34255391 92.97031581 -44.54193031 93.28511959 -47.10515022 94.56672955 C-47.79001747 95.89080623 -48.45385225 97.22582195 -49.10515022 98.56672955 C-51.60515022 101.31672955 -51.60515022 101.31672955 -54.10515022 103.56672955 C-54.76515022 103.56672955 -55.42515022 103.56672955 -56.10515022 103.56672955 C-56.35265022 104.18547955 -56.60015022 104.80422955 -56.85515022 105.44172955 C-58.31143662 107.91741641 -59.48327528 108.51797957 -62.10515022 109.56672955 C-62.10515022 110.22672955 -62.10515022 110.88672955 -62.10515022 111.56672955 C-62.76515022 111.56672955 -63.42515022 111.56672955 -64.10515022 111.56672955 C-64.10515022 112.22672955 -64.10515022 112.88672955 -64.10515022 113.56672955 C-64.76515022 113.56672955 -65.42515022 113.56672955 -66.10515022 113.56672955 C-66.37327522 114.20610455 -66.64140022 114.84547955 -66.91765022 115.50422955 C-68.10515022 117.56672955 -68.10515022 117.56672955 -71.10515022 118.56672955 C-71.43515022 119.55672955 -71.76515022 120.54672955 -72.10515022 121.56672955 C-72.76515022 121.56672955 -73.42515022 121.56672955 -74.10515022 121.56672955 C-74.10515022 122.22672955 -74.10515022 122.88672955 -74.10515022 123.56672955 C-74.76515022 123.56672955 -75.42515022 123.56672955 -76.10515022 123.56672955 C-76.10515022 125.21672955 -76.10515022 126.86672955 -76.10515022 128.56672955 C-75.54827522 128.79360455 -74.99140022 129.02047955 -74.41765022 129.25422955 C-71.47268339 130.92569721 -69.42358479 133.11949306 -67.10515022 135.56672955 C-68.32856723 140.18852712 -70.72021933 142.14769057 -74.30436897 145.01204205 C-76.05225927 146.52106664 -77.34469209 148.0407486 -78.73015022 149.87922955 C-81.10515022 152.56672955 -81.10515022 152.56672955 -83.54265022 153.75422955 C-87.59904178 153.45742041 -89.26138824 151.41049153 -92.10515022 148.56672955 C-92.10515022 147.90672955 -92.10515022 147.24672955 -92.10515022 146.56672955 C-93.90102295 145.7532925 -93.90102295 145.7532925 -96.10515022 145.56672955 C-98.11139398 146.91284426 -98.11139398 146.91284426 -99.92546272 148.9690733 C-100.62542366 149.69417095 -101.3253846 150.41926861 -102.04655647 151.16633892 C-102.76714241 151.93784283 -103.48772835 152.70934673 -104.23015022 153.50422955 C-105.66590151 155.01748599 -107.10579722 156.52682467 -108.55046272 158.0315733 C-109.18484261 158.70825054 -109.81922249 159.38492779 -110.472826 160.0821104 C-112.10515022 161.56672955 -112.10515022 161.56672955 -114.10515022 161.56672955 C-114.43515022 162.55672955 -114.76515022 163.54672955 -115.10515022 164.56672955 C-115.76515022 164.56672955 -116.42515022 164.56672955 -117.10515022 164.56672955 C-117.43515022 165.55672955 -117.76515022 166.54672955 -118.10515022 167.56672955 C-118.76515022 167.56672955 -119.42515022 167.56672955 -120.10515022 167.56672955 C-120.10515022 168.22672955 -120.10515022 168.88672955 -120.10515022 169.56672955 C-120.76515022 169.56672955 -121.42515022 169.56672955 -122.10515022 169.56672955 C-122.10515022 170.22672955 -122.10515022 170.88672955 -122.10515022 171.56672955 C-122.76515022 171.56672955 -123.42515022 171.56672955 -124.10515022 171.56672955 C-124.10515022 172.22672955 -124.10515022 172.88672955 -124.10515022 173.56672955 C-124.76515022 173.56672955 -125.42515022 173.56672955 -126.10515022 173.56672955 C-126.43515022 174.55672955 -126.76515022 175.54672955 -127.10515022 176.56672955 C-127.76515022 176.56672955 -128.42515022 176.56672955 -129.10515022 176.56672955 C-129.43515022 177.55672955 -129.76515022 178.54672955 -130.10515022 179.56672955 C-130.76515022 179.56672955 -131.42515022 179.56672955 -132.10515022 179.56672955 C-132.37327522 180.20610455 -132.64140022 180.84547955 -132.91765022 181.50422955 C-134.10515022 183.56672955 -134.10515022 183.56672955 -137.10515022 184.56672955 C-137.43515022 185.55672955 -137.76515022 186.54672955 -138.10515022 187.56672955 C-138.76515022 187.56672955 -139.42515022 187.56672955 -140.10515022 187.56672955 C-140.76515022 188.88672955 -141.42515022 190.20672955 -142.10515022 191.56672955 C-142.76515022 191.56672955 -143.42515022 191.56672955 -144.10515022 191.56672955 C-144.43515022 192.55672955 -144.76515022 193.54672955 -145.10515022 194.56672955 C-145.76515022 194.56672955 -146.42515022 194.56672955 -147.10515022 194.56672955 C-147.10515022 195.22672955 -147.10515022 195.88672955 -147.10515022 196.56672955 C-147.76515022 196.56672955 -148.42515022 196.56672955 -149.10515022 196.56672955 C-149.35265022 197.18547955 -149.60015022 197.80422955 -149.85515022 198.44172955 C-151.31143662 200.91741641 -152.48327528 201.51797957 -155.10515022 202.56672955 C-155.10515022 203.22672955 -155.10515022 203.88672955 -155.10515022 204.56672955 C-155.76515022 204.56672955 -156.42515022 204.56672955 -157.10515022 204.56672955 C-157.37327522 205.16485455 -157.64140022 205.76297955 -157.91765022 206.37922955 C-159.10432429 208.56520808 -160.20114135 209.98005548 -162.10515022 211.56672955 C-162.76515022 211.56672955 -163.42515022 211.56672955 -164.10515022 211.56672955 C-164.43515022 212.55672955 -164.76515022 213.54672955 -165.10515022 214.56672955 C-165.76515022 214.56672955 -166.42515022 214.56672955 -167.10515022 214.56672955 C-167.43515022 215.55672955 -167.76515022 216.54672955 -168.10515022 217.56672955 C-168.76515022 217.56672955 -169.42515022 217.56672955 -170.10515022 217.56672955 C-170.10515022 218.22672955 -170.10515022 218.88672955 -170.10515022 219.56672955 C-170.76515022 219.56672955 -171.42515022 219.56672955 -172.10515022 219.56672955 C-172.43515022 220.55672955 -172.76515022 221.54672955 -173.10515022 222.56672955 C-173.76515022 222.56672955 -174.42515022 222.56672955 -175.10515022 222.56672955 C-175.37327522 223.16485455 -175.64140022 223.76297955 -175.91765022 224.37922955 C-177.10432429 226.56520808 -178.20114135 227.98005548 -180.10515022 229.56672955 C-180.76515022 229.56672955 -181.42515022 229.56672955 -182.10515022 229.56672955 C-182.10515022 230.22672955 -182.10515022 230.88672955 -182.10515022 231.56672955 C-182.76515022 231.56672955 -183.42515022 231.56672955 -184.10515022 231.56672955 C-184.43515022 232.55672955 -184.76515022 233.54672955 -185.10515022 234.56672955 C-185.76515022 234.56672955 -186.42515022 234.56672955 -187.10515022 234.56672955 C-187.43515022 235.55672955 -187.76515022 236.54672955 -188.10515022 237.56672955 C-188.76515022 237.56672955 -189.42515022 237.56672955 -190.10515022 237.56672955 C-190.43515022 238.55672955 -190.76515022 239.54672955 -191.10515022 240.56672955 C-191.76515022 240.56672955 -192.42515022 240.56672955 -193.10515022 240.56672955 C-193.35265022 241.1390733 -193.60015022 241.71141705 -193.85515022 242.30110455 C-195.29831222 244.91683566 -196.98731245 246.71446411 -199.10515022 248.81672955 C-199.80640022 249.5231358 -200.50765022 250.22954205 -201.23015022 250.95735455 C-203.10515022 252.56672955 -203.10515022 252.56672955 -205.10515022 252.56672955 C-205.10515022 253.22672955 -205.10515022 253.88672955 -205.10515022 254.56672955 C-205.76515022 254.56672955 -206.42515022 254.56672955 -207.10515022 254.56672955 C-207.43515022 255.55672955 -207.76515022 256.54672955 -208.10515022 257.56672955 C-208.76515022 257.56672955 -209.42515022 257.56672955 -210.10515022 257.56672955 C-210.37158333 258.15623394 -210.63801643 258.74573833 -210.91252327 259.3531065 C-212.91635812 263.07240448 -215.95305237 265.78355046 -218.91765022 268.75422955 C-219.84287483 269.71619244 -219.84287483 269.71619244 -220.78679085 270.69758892 C-221.39329475 271.30796001 -221.99979866 271.91833111 -222.62468147 272.5471983 C-223.17229134 273.10302593 -223.7199012 273.65885357 -224.2841053 274.23152447 C-226.5128047 275.86562516 -228.4106321 276.09635495 -231.10515022 276.56672955 C-231.12853456 252.24455377 -231.14615658 227.92237969 -231.15696239 203.60019493 C-231.16211359 192.30640251 -231.16913387 181.01261709 -231.18058968 169.71882915 C-231.19057246 159.87251891 -231.19701221 150.02621373 -231.19923872 140.17989856 C-231.20053972 134.96879055 -231.20358688 129.75769703 -231.21088028 124.54659367 C-231.21769723 119.63585221 -231.21975568 114.72513115 -231.2182579 109.81438541 C-231.21853169 108.01777822 -231.220503 106.22117031 -231.2243557 104.42456722 C-231.26309829 85.41623926 -230.37991401 70.16419226 -218.10515022 54.56672955 C-217.17315804 53.30215923 -217.17315804 53.30215923 -216.22233772 52.01204205 C-209.72891026 44.51225313 -199.31233695 39.49203933 -189.49186897 38.69172955 C-173.35283055 37.84647712 -163.61512719 41.73610861 -150.97624397 51.7971983 C-150.35878304 52.38114361 -149.7413221 52.96508892 -149.10515022 53.56672955 C-149.10515022 54.22672955 -149.10515022 54.88672955 -149.10515022 55.56672955 C-148.52765022 55.79360455 -147.95015022 56.02047955 -147.35515022 56.25422955 C-144.53601341 57.89872602 -143.09260153 60.00227624 -141.10515022 62.56672955 C-139.62015022 63.55672955 -139.62015022 63.55672955 -138.10515022 64.56672955 C-138.10515022 65.22672955 -138.10515022 65.88672955 -138.10515022 66.56672955 C-136.12515022 67.55672955 -136.12515022 67.55672955 -134.10515022 68.56672955 C-134.10515022 69.22672955 -134.10515022 69.88672955 -134.10515022 70.56672955 C-132.12515022 71.55672955 -132.12515022 71.55672955 -130.10515022 72.56672955 C-130.10515022 73.22672955 -130.10515022 73.88672955 -130.10515022 74.56672955 C-128.12515022 75.55672955 -128.12515022 75.55672955 -126.10515022 76.56672955 C-126.10515022 77.22672955 -126.10515022 77.88672955 -126.10515022 78.56672955 C-124.12515022 79.55672955 -124.12515022 79.55672955 -122.10515022 80.56672955 C-122.10515022 81.22672955 -122.10515022 81.88672955 -122.10515022 82.56672955 C-120.12515022 83.55672955 -120.12515022 83.55672955 -118.10515022 84.56672955 C-118.10515022 85.22672955 -118.10515022 85.88672955 -118.10515022 86.56672955 C-117.56374397 86.78071392 -117.02233772 86.9946983 -116.46452522 87.21516705 C-113.26587053 89.04750898 -110.89550538 91.56469561 -108.35515022 94.19172955 C-107.84854866 94.70735455 -107.3419471 95.22297955 -106.81999397 95.75422955 C-105.57711121 97.02056293 -104.34049746 98.29304394 -103.10515022 99.56672955 C-97.8935475 95.02460148 -92.91384407 90.54406552 -88.53483772 85.1878233 C-86.47873477 82.85644973 -84.13896234 80.93778832 -81.75358772 78.9534483 C-77.8678668 75.68465463 -74.55694463 71.9476999 -71.23015022 68.12922955 C-68.24819335 64.74293953 -65.17424789 61.76263647 -61.69499397 58.8987608 C-59.34871824 56.93296221 -57.23989719 54.75765407 -55.10515022 52.56672955 C-53.89858772 51.39110455 -53.89858772 51.39110455 -52.66765022 50.19172955 C-50.71908922 48.19564267 -48.94541855 46.20560707 -47.16765022 44.06672955 C-44.39971877 40.79813866 -41.53397412 38.13834747 -38.10515022 35.56672955 C-37.44515022 35.56672955 -36.78515022 35.56672955 -36.10515022 35.56672955 C-35.83910988 34.97700863 -35.57306953 34.38728771 -35.29896736 33.77969646 C-34.07568395 31.51210821 -32.80305749 29.99291755 -31.004076 28.15925884 C-30.37647377 27.51566921 -29.74887154 26.87207958 -29.10225105 26.20898724 C-28.4251609 25.52653439 -27.74807076 24.84408154 -27.05046272 24.1409483 C-26.35250587 23.43396297 -25.65454903 22.72697765 -24.93544197 21.99856853 C-23.46040979 20.5090482 -21.98256634 19.02230725 -20.50212288 17.53816509 C-18.23320908 15.25730451 -15.98361271 12.95846053 -13.73405647 10.65852642 C-12.29901031 9.21402192 -10.86284974 7.7706235 -9.42546272 6.3284483 C-8.75242104 5.63587429 -8.07937935 4.94330029 -7.38594246 4.22973919 C-6.7520359 3.60191036 -6.11812935 2.97408154 -5.4650135 2.32722759 C-4.9114518 1.76859524 -4.35789009 1.20996288 -3.78755379 0.63440228 C-2.10515022 -0.43327045 -2.10515022 -0.43327045 0 0 Z M-184.10515022 74.56672955 C-184.10515022 75.22672955 -184.10515022 75.88672955 -184.10515022 76.56672955 C-184.97140022 76.90704205 -184.97140022 76.90704205 -185.85515022 77.25422955 C-190.02998413 79.68954932 -191.78771361 82.54363916 -193.20814705 87.12166119 C-194.33579573 91.94662041 -194.37176282 96.62781956 -194.332201 101.5628233 C-194.33249306 102.52959499 -194.33278511 103.49636669 -194.33308601 104.4924345 C-194.33170136 107.66312664 -194.31618096 110.83357885 -194.30046272 114.00422955 C-194.29672952 116.21239881 -194.293884 118.42056974 -194.29188728 120.62874126 C-194.28427503 126.42210294 -194.26464727 132.21536329 -194.24247932 138.00868511 C-194.22196894 143.9277589 -194.21287448 149.84684916 -194.20280647 155.7659483 C-194.18139907 167.36625307 -194.14729228 178.96648286 -194.10515022 190.56672955 C-192.97595374 189.78705074 -191.85033517 189.00218846 -190.72624397 188.21516705 C-190.0990345 187.77865826 -189.47182503 187.34214947 -188.82560921 186.89241314 C-186.49300707 185.09504836 -184.92150804 182.87845768 -183.10515022 180.56672955 C-181.01255724 178.70080041 -178.87927817 176.89908667 -176.71452522 175.1175108 C-176.18343147 174.60575298 -175.65233772 174.09399517 -175.10515022 173.56672955 C-175.10515022 172.90672955 -175.10515022 172.24672955 -175.10515022 171.56672955 C-173.62015022 171.07172955 -173.62015022 171.07172955 -172.10515022 170.56672955 C-169.89657362 168.69164793 -169.89657362 168.69164793 -168.10515022 166.56672955 C-168.10515022 165.90672955 -168.10515022 165.24672955 -168.10515022 164.56672955 C-167.52765022 164.31922955 -166.95015022 164.07172955 -166.35515022 163.81672955 C-163.77575043 162.38372966 -162.0439343 160.78248278 -160.10515022 158.56672955 C-160.10515022 157.90672955 -160.10515022 157.24672955 -160.10515022 156.56672955 C-159.11515022 156.23672955 -158.12515022 155.90672955 -157.10515022 155.56672955 C-156.10816468 153.74692287 -156.10816468 153.74692287 -156.10515022 151.56672955 C-157.20944233 149.56588812 -157.20944233 149.56588812 -158.91765022 147.81672955 C-159.46034554 147.2031358 -160.00304085 146.58954205 -160.56218147 145.95735455 C-162.00656582 144.34356819 -162.00656582 144.34356819 -164.10515022 144.56672955 C-163.63077522 143.80360455 -163.15640022 143.04047955 -162.66765022 142.25422955 C-161.00408925 139.60262407 -161.00408925 139.60262407 -160.10515022 136.56672955 C-159.11515022 136.23672955 -158.12515022 135.90672955 -157.10515022 135.56672955 C-157.10515022 134.90672955 -157.10515022 134.24672955 -157.10515022 133.56672955 C-156.52765022 133.31922955 -155.95015022 133.07172955 -155.35515022 132.81672955 C-152.77575043 131.38372966 -151.0439343 129.78248278 -149.10515022 127.56672955 C-149.10515022 126.90672955 -149.10515022 126.24672955 -149.10515022 125.56672955 C-148.32140022 126.06172955 -147.53765022 126.55672955 -146.73015022 127.06672955 C-144.31962695 128.73210919 -144.31962695 128.73210919 -142.10515022 128.56672955 C-141.83702522 129.18547955 -141.56890022 129.80422955 -141.29265022 130.44172955 C-140.14958174 132.86625285 -140.14958174 132.86625285 -137.10515022 134.56672955 C-134.61667312 132.34884413 -132.13592532 130.12351618 -129.66765022 127.8831358 C-128.22631792 126.58022412 -126.77525815 125.28731665 -125.29265022 124.0315733 C-123.7486207 122.73603818 -123.7486207 122.73603818 -122.10515022 120.56672955 C-121.77916462 117.94556444 -121.77916462 117.94556444 -123.10515022 115.56672955 C-125.43116547 113.50570833 -125.43116547 113.50570833 -128.10515022 111.56672955 C-129.43848356 109.90006288 -130.77181689 108.23339621 -132.10515022 106.56672955 C-133.7551785 105.21286019 -135.42258892 103.87994812 -137.10515022 102.56672955 C-138.79512345 100.92370002 -140.45731416 99.25201643 -142.10515022 97.56672955 C-142.82315804 96.85903423 -143.54116585 96.15133892 -144.28093147 95.4221983 C-145.06854866 94.64489361 -145.85616585 93.86758892 -146.66765022 93.06672955 C-147.41143929 92.33454205 -148.15522835 91.60235455 -148.92155647 90.84797955 C-151.10515022 88.56672955 -151.10515022 88.56672955 -153.03483772 86.08235455 C-155.34874082 83.27074398 -157.84115626 81.10868927 -160.66765022 78.81672955 C-161.61768929 78.0381358 -162.56772835 77.25954205 -163.54655647 76.45735455 C-167.4511509 73.57212752 -170.37309761 73.43013138 -175.10515022 73.44172955 C-176.15702522 73.43915142 -177.20890022 73.4365733 -178.29265022 73.43391705 C-181.186419 73.44319319 -181.186419 73.44319319 -184.10515022 74.56672955 Z " fill="#F6F5F5" transform="translate(319.1051502227783,172.43327045440674)"/>
<path d="M0 0 C0.33 0 0.66 0 1 0 C1.02314995 13.75159727 1.04092867 27.50318993 1.05181217 41.2548027 C1.05703517 47.63992754 1.0641223 54.02503907 1.07543945 60.41015625 C1.08628896 66.56983827 1.09228124 72.72950747 1.09487724 78.8891983 C1.09672776 81.24157157 1.10034123 83.59394413 1.10573006 85.94631195 C1.1129678 89.2360334 1.11398977 92.52570158 1.11352539 95.81542969 C1.11712067 96.79222687 1.12071594 97.76902405 1.12442017 98.77542114 C1.1230455 99.67282013 1.12167084 100.57021912 1.12025452 101.49481201 C1.12117631 102.27280529 1.1220981 103.05079857 1.12304783 103.8523674 C0.99895014 106.01832382 0.59649147 107.91866108 0 110 C-0.66 110 -1.32 110 -2 110 C-1.92935333 109.45278793 -1.85870667 108.90557587 -1.78591919 108.34178162 C-0.66075554 98.16107284 -0.85536656 87.95019325 -0.8671875 77.72265625 C-0.86651294 75.66287728 -0.86554164 73.6030984 -0.86428833 71.5433197 C-0.86282085 67.24754063 -0.86493681 62.95178248 -0.86962891 58.65600586 C-0.87535089 53.14921199 -0.87202564 47.64246661 -0.86605644 42.13567448 C-0.86244662 37.89181654 -0.86359093 33.64797014 -0.86618423 29.40411186 C-0.86685103 27.37271557 -0.86603371 25.34131824 -0.86370468 23.30992317 C-0.86116853 20.47880382 -0.86503128 17.64776382 -0.87060547 14.81665039 C-0.86858124 13.97869431 -0.86655701 13.14073822 -0.86447144 12.27738953 C-0.83686594 8.02671186 -0.83686594 8.02671186 -1.63293648 3.87889767 C-1.75406744 3.25886144 -1.8751984 2.63882521 -2 2 C-1.34 1.34 -0.68 0.68 0 0 Z " fill="#A39FA1" transform="translate(284,254)"/>
<path d="M0 0 C0 4.17818902 -2.29712277 6.08119043 -5 9 C-6.66666667 10.66666667 -8.33333333 12.33333333 -10 14 C-11.17300229 15.34868236 -12.33924583 16.70326189 -13.5 18.0625 C-16.11780253 21.06728203 -18.61382551 23.83661074 -22 26 C-22.99 25.67 -23.98 25.34 -25 25 C-21.85162451 20.99297665 -18.61060917 17.69177256 -14.6953125 14.4375 C-12.3226152 12.42562763 -10.16990732 10.22701015 -8 8 C-5.33333333 5.33333333 -2.66666667 2.66666667 0 0 Z " fill="#B9B5B6" transform="translate(272,217)"/>
<path d="M0 0 C0.33 0.66 0.66 1.32 1 2 C0.34 2 -0.32 2 -1 2 C-1.09796875 2.58910156 -1.1959375 3.17820312 -1.296875 3.78515625 C-2.13947811 6.43935603 -3.23340744 7.53927266 -5.25 9.4375 C-5.88035156 10.04078125 -6.51070312 10.6440625 -7.16015625 11.265625 C-7.76730469 11.83796875 -8.37445313 12.4103125 -9 13 C-9.886875 13.886875 -10.77375 14.77375 -11.6875 15.6875 C-12.450625 16.450625 -13.21375 17.21375 -14 18 C-14.70125 18.763125 -15.4025 19.52625 -16.125 20.3125 C-18 22 -18 22 -21 22 C-20.505 20.515 -20.505 20.515 -20 19 C-19.34 19 -18.68 19 -18 19 C-17.67 18.01 -17.34 17.02 -17 16 C-15.546875 14.60546875 -15.546875 14.60546875 -13.75 13.1875 C-11.36063096 11.22236587 -9.30016199 9.29678021 -7.375 6.875 C-5.11529084 4.13956259 -2.83844801 2.10856138 0 0 Z " fill="#C1BDBE" transform="translate(153,336)"/>
<path d="M0 0 C0 3.63898996 -0.66329035 4.0879168 -3.0625 6.6875 C-3.69414062 7.38230469 -4.32578125 8.07710937 -4.9765625 8.79296875 C-5.97816406 9.88544922 -5.97816406 9.88544922 -7 11 C-8.31627371 12.4966896 -9.62897484 13.99653129 -10.9375 15.5 C-11.95833333 16.66666667 -12.97916667 17.83333333 -14 19 C-15.32 18.67 -16.64 18.34 -18 18 C-14.85649176 13.99917133 -11.62329985 10.69918983 -7.7109375 7.453125 C-5.32928667 5.43035306 -3.17656333 3.2405799 -1 1 C-0.67 0.67 -0.34 0.34 0 0 Z " fill="#BEBCBD" transform="translate(245,244)"/>
<path d="M0 0 C0 4.09632497 -1.55398196 5.76067881 -4 9 C-6.5625 11.4375 -6.5625 11.4375 -9 13 C-9.99 12.67 -10.98 12.34 -12 12 C-8.04 8.04 -4.08 4.08 0 0 Z " fill="#B8B3B0" transform="translate(315,174)"/>
<path d="M0 0 C1 3 1 3 0 6 C-0.66 6 -1.32 6 -2 6 C-2.33 6.66 -2.66 7.32 -3 8 C-5.0625 8.625 -5.0625 8.625 -7 9 C-6.67 10.65 -6.34 12.3 -6 14 C-6.66 13.67 -7.32 13.34 -8 13 C-8 11.35 -8 9.7 -8 8 C-7.01 7.67 -6.02 7.34 -5 7 C-4.67 6.34 -4.34 5.68 -4 5 C-3 3 -3 3 0 2 C0 1.34 0 0.68 0 0 Z " fill="#9F9C9C" transform="translate(212,352)"/>
<path d="M0 0 C0.66 0.33 1.32 0.66 2 1 C0.4422692 4.82352106 -1.91595258 7.29205593 -5 10 C-5.99 10 -6.98 10 -8 10 C-7.67 9.01 -7.34 8.02 -7 7 C-6.34 7 -5.68 7 -5 7 C-4.67 6.01 -4.34 5.02 -4 4 C-2.70644173 2.62804426 -1.37701298 1.28817344 0 0 Z " fill="#ACAAAA" transform="translate(140,348)"/>
<path d="M0 0 C0.33 0.66 0.66 1.32 1 2 C-1.51636411 6.19394018 -3.50770483 8.926633 -8 11 C-8.99 11 -9.98 11 -11 11 C-7.82228249 6.82357127 -5.99634009 4.80423392 -1 3 C-0.67 2.01 -0.34 1.02 0 0 Z " fill="#B4B0B1" transform="translate(284,205)"/>
<path d="M0 0 C0.66 1.32 1.32 2.64 2 4 C-2.82142857 9.22321429 -2.82142857 9.22321429 -7 10 C-6.57847656 9.52949219 -6.15695312 9.05898438 -5.72265625 8.57421875 C-5.17480469 7.95160156 -4.62695312 7.32898438 -4.0625 6.6875 C-3.51722656 6.07261719 -2.97195313 5.45773437 -2.41015625 4.82421875 C-0.79918441 2.94758042 -0.79918441 2.94758042 0 0 Z " fill="#A5A4A3" transform="translate(281,364)"/>
<path d="M0 0 C0.33 0.66 0.66 1.32 1 2 C1.99 2.33 2.98 2.66 4 3 C3.360625 3.268125 2.72125 3.53625 2.0625 3.8125 C-0.33131686 4.88667752 -0.33131686 4.88667752 -1 8 C-1.66 8 -2.32 8 -3 8 C-2.25 2.25 -2.25 2.25 0 0 Z " fill="#C6C3C3" transform="translate(205,329)"/>
<path d="M0 0 C2.475 0.99 2.475 0.99 5 2 C5 2.33 5 2.66 5 3 C3.9275 3.28875 2.855 3.5775 1.75 3.875 C-2.13029068 4.92236103 -2.13029068 4.92236103 -6 7 C-4.02 4.69 -2.04 2.38 0 0 Z " fill="#8D8A8A" transform="translate(219,345)"/>
<path d="M0 0 C2.97 0.495 2.97 0.495 6 1 C6 1.66 6 2.32 6 3 C7.65 3.33 9.3 3.66 11 4 C10.34 4.66 9.68 5.32 9 6 C6.625 5.9375 6.625 5.9375 4 5 C1.6875 2.4375 1.6875 2.4375 0 0 Z " fill="#918E8E" transform="translate(227,320)"/>
<path d="M0 0 C0.66 0.33 1.32 0.66 2 1 C-0.97 3.97 -3.94 6.94 -7 10 C-7.66 9.67 -8.32 9.34 -9 9 C-7.87895467 7.68412059 -6.75303035 6.37239647 -5.625 5.0625 C-4.99851563 4.33160156 -4.37203125 3.60070312 -3.7265625 2.84765625 C-2 1 -2 1 0 0 Z " fill="#EBE5E7" transform="translate(133,357)"/>
<path d="M0 0 C0.66 0.33 1.32 0.66 2 1 C0.28032649 4.02990095 -1.29238306 6.76327296 -4 9 C-4.66 9 -5.32 9 -6 9 C-4.47291037 5.56404834 -2.40072955 2.88087546 0 0 Z " fill="#BDB9B9" transform="translate(105,222)"/>
<path d="M0 0 C2 1 2 1 3 3 C0.6875 5.0625 0.6875 5.0625 -2 7 C-2.99 6.67 -3.98 6.34 -5 6 C-3.35 4.02 -1.7 2.04 0 0 Z " fill="#BCB8BA" transform="translate(252,236)"/>
<path d="M0 0 C0.99 0.66 1.98 1.32 3 2 C1.37660195 3.70884005 -0.29319053 5.37446717 -2 7 C-2.66 7 -3.32 7 -4 7 C-4 6.01 -4 5.02 -4 4 C-3.01 4 -2.02 4 -1 4 C-0.67 2.68 -0.34 1.36 0 0 Z " fill="#A19F9D" transform="translate(118,418)"/>
<path d="M0 0 C0.33 0 0.66 0 1 0 C0.88590407 1.45922693 0.75834456 2.91740598 0.625 4.375 C0.55539062 5.18710937 0.48578125 5.99921875 0.4140625 6.8359375 C0 9 0 9 -2 11 C-2.28571429 3.57142857 -2.28571429 3.57142857 0 0 Z " fill="#908C8E" transform="translate(319,364)"/>
<path d="M0 0 C0.33 0.99 0.66 1.98 1 3 C-0.89353366 4.89353366 -2.84526801 6.4198632 -5 8 C-5.66 7.67 -6.32 7.34 -7 7 C-4.69 4.69 -2.38 2.38 0 0 Z " fill="#C2BBBA" transform="translate(192,297)"/>
<path d="M0 0 C1.32 0.33 2.64 0.66 4 1 C2.70700306 3.88437779 1.34058637 5.87219421 -1 8 C-1.66 7.67 -2.32 7.34 -3 7 C-2.2575 6.38125 -2.2575 6.38125 -1.5 5.75 C0.43386092 3.87797662 0.43386092 3.87797662 0 0 Z " fill="#9B9898" transform="translate(196,289)"/>
<path d="M0 0 C1.65 0 3.3 0 5 0 C6 3 6 3 5 6 C3.35 4.02 1.7 2.04 0 0 Z " fill="#BEBBBA" transform="translate(216,376)"/>
<path d="M0 0 C0.33 0.66 0.66 1.32 1 2 C-0.32 3.65 -1.64 5.3 -3 7 C-3.99 6.67 -4.98 6.34 -6 6 C-4.02 4.02 -2.04 2.04 0 0 Z " fill="#ABA9A9" transform="translate(226,263)"/>
</svg>
