<svg xmlns="http://www.w3.org/2000/svg" xmlns:xlink="http://www.w3.org/1999/xlink" width="100" zoomAndPan="magnify" viewBox="0 0 75 37.5" height="50" preserveAspectRatio="xMidYMid meet" version="1.0"><defs><g/><clipPath id="af8dde262f"><path d="M 11 6 L 15 6 L 15 17 L 11 17 Z M 11 6 " clip-rule="nonzero"/></clipPath><clipPath id="c0c6e7fcc3"><path d="M 22.320312 12.835938 L 9.847656 19.328125 L 3.355469 6.855469 L 15.828125 0.363281 Z M 22.320312 12.835938 " clip-rule="nonzero"/></clipPath><clipPath id="2c9c58aa02"><path d="M 22.320312 12.835938 L 9.847656 19.328125 L 3.355469 6.855469 L 15.828125 0.363281 Z M 22.320312 12.835938 " clip-rule="nonzero"/></clipPath><clipPath id="b5897d06c0"><path d="M 15 5 L 19 5 L 19 16 L 15 16 Z M 15 5 " clip-rule="nonzero"/></clipPath><clipPath id="6a14dd7731"><path d="M 22.320312 12.835938 L 9.847656 19.328125 L 3.355469 6.855469 L 15.828125 0.363281 Z M 22.320312 12.835938 " clip-rule="nonzero"/></clipPath><clipPath id="cf3c9d1037"><path d="M 22.320312 12.835938 L 9.847656 19.328125 L 3.355469 6.855469 L 15.828125 0.363281 Z M 22.320312 12.835938 " clip-rule="nonzero"/></clipPath><clipPath id="e6bd2f26a4"><path d="M 7 4 L 10 4 L 10 15 L 7 15 Z M 7 4 " clip-rule="nonzero"/></clipPath><clipPath id="c14e1e4969"><path d="M 22.320312 12.835938 L 9.847656 19.328125 L 3.355469 6.855469 L 15.828125 0.363281 Z M 22.320312 12.835938 " clip-rule="nonzero"/></clipPath><clipPath id="118cb5acb2"><path d="M 22.320312 12.835938 L 9.847656 19.328125 L 3.355469 6.855469 L 15.828125 0.363281 Z M 22.320312 12.835938 " clip-rule="nonzero"/></clipPath><clipPath id="239978cebe"><rect x="0" width="26" y="0" height="14"/></clipPath></defs><g clip-path="url(#af8dde262f)"><g clip-path="url(#c0c6e7fcc3)"><g clip-path="url(#2c9c58aa02)"><path fill="#ffffff" d="M 11.8125 7.570312 C 11.75 10.152344 11.6875 12.734375 11.628906 15.316406 C 11.613281 15.964844 12.121094 16.609375 12.800781 16.613281 C 13.457031 16.617188 14.082031 16.128906 14.097656 15.4375 C 14.160156 12.855469 14.21875 10.273438 14.28125 7.691406 C 14.296875 7.042969 13.785156 6.398438 13.109375 6.394531 C 12.453125 6.390625 11.828125 6.878906 11.8125 7.570312 Z M 11.8125 7.570312 " fill-opacity="1" fill-rule="nonzero"/></g></g></g><g clip-path="url(#b5897d06c0)"><g clip-path="url(#6a14dd7731)"><g clip-path="url(#cf3c9d1037)"><path fill="#ffffff" d="M 16.132812 6.320312 C 16.070312 8.90625 16.011719 11.488281 15.949219 14.070312 C 15.933594 14.71875 16.445312 15.363281 17.121094 15.367188 C 17.777344 15.371094 18.402344 14.882812 18.417969 14.191406 C 18.480469 11.609375 18.542969 9.027344 18.601562 6.445312 C 18.617188 5.796875 18.109375 5.152344 17.429688 5.148438 C 16.773438 5.144531 16.148438 5.632812 16.132812 6.320312 Z M 16.132812 6.320312 " fill-opacity="1" fill-rule="nonzero"/></g></g></g><g clip-path="url(#e6bd2f26a4)"><g clip-path="url(#c14e1e4969)"><g clip-path="url(#118cb5acb2)"><path fill="#ffffff" d="M 7.273438 5.503906 C 7.210938 8.085938 7.148438 10.671875 7.085938 13.253906 C 7.074219 13.898438 7.582031 14.542969 8.261719 14.546875 C 8.917969 14.554688 9.542969 14.066406 9.558594 13.375 C 9.617188 10.792969 9.679688 8.207031 9.742188 5.625 C 9.757812 4.980469 9.246094 4.335938 8.566406 4.332031 C 7.910156 4.324219 7.289062 4.8125 7.273438 5.503906 Z M 7.273438 5.503906 " fill-opacity="1" fill-rule="nonzero"/></g></g></g><g transform="matrix(1, 0, 0, 1, 18, 3)"><g clip-path="url(#239978cebe)"><g fill="#ffffff" fill-opacity="1"><g transform="translate(0.761867, 10.298563)"><g><path d="M 1.765625 -1.328125 L 4.71875 -1.328125 L 4.71875 0 L 0.28125 0 L 0.28125 -6.15625 L 1.765625 -6.15625 Z M 1.765625 -1.328125 "/></g></g></g><g fill="#ffffff" fill-opacity="1"><g transform="translate(5.600059, 10.298563)"><g><path d="M 3.3125 -6.125 C 4.1875 -6.125 4.9375 -5.816406 5.5625 -5.203125 C 6.175781 -4.578125 6.484375 -3.828125 6.484375 -2.953125 C 6.484375 -2.078125 6.175781 -1.328125 5.5625 -0.703125 C 4.9375 -0.0859375 4.1875 0.21875 3.3125 0.21875 C 2.4375 0.21875 1.6875 -0.0859375 1.0625 -0.703125 C 0.445312 -1.328125 0.140625 -2.078125 0.140625 -2.953125 C 0.140625 -3.828125 0.445312 -4.578125 1.0625 -5.203125 C 1.6875 -5.816406 2.4375 -6.125 3.3125 -6.125 Z M 4.625 -1.640625 C 4.976562 -2.003906 5.15625 -2.441406 5.15625 -2.953125 C 5.15625 -3.460938 4.976562 -3.898438 4.625 -4.265625 C 4.257812 -4.617188 3.820312 -4.796875 3.3125 -4.796875 C 2.800781 -4.796875 2.363281 -4.617188 2 -4.265625 C 1.644531 -3.898438 1.46875 -3.460938 1.46875 -2.953125 C 1.46875 -2.441406 1.644531 -2.003906 2 -1.640625 C 2.375 -1.285156 2.8125 -1.109375 3.3125 -1.109375 C 3.8125 -1.109375 4.25 -1.285156 4.625 -1.640625 Z M 4.625 -1.640625 "/></g></g></g><g fill="#ffffff" fill-opacity="1"><g transform="translate(12.227717, 10.298563)"><g><path d="M 4.3125 -6.15625 L 5.78125 -6.15625 L 5.78125 0 L 1.703125 -3 L 1.703125 0 L 0.234375 0 L 0.234375 -6.15625 L 4.3125 -3.015625 Z M 4.3125 -6.15625 "/></g></g></g><g fill="#ffffff" fill-opacity="1"><g transform="translate(18.239951, 10.298563)"><g><path d="M 3.3125 -6.125 C 4.1875 -6.125 4.9375 -5.816406 5.5625 -5.203125 C 6.175781 -4.578125 6.484375 -3.828125 6.484375 -2.953125 C 6.484375 -2.078125 6.175781 -1.328125 5.5625 -0.703125 C 4.9375 -0.0859375 4.1875 0.21875 3.3125 0.21875 C 2.4375 0.21875 1.6875 -0.0859375 1.0625 -0.703125 C 0.445312 -1.328125 0.140625 -2.078125 0.140625 -2.953125 C 0.140625 -3.828125 0.445312 -4.578125 1.0625 -5.203125 C 1.6875 -5.816406 2.4375 -6.125 3.3125 -6.125 Z M 4.625 -1.640625 C 4.976562 -2.003906 5.15625 -2.441406 5.15625 -2.953125 C 5.15625 -3.460938 4.976562 -3.898438 4.625 -4.265625 C 4.257812 -4.617188 3.820312 -4.796875 3.3125 -4.796875 C 2.800781 -4.796875 2.363281 -4.617188 2 -4.265625 C 1.644531 -3.898438 1.46875 -3.460938 1.46875 -2.953125 C 1.46875 -2.441406 1.644531 -2.003906 2 -1.640625 C 2.375 -1.285156 2.8125 -1.109375 3.3125 -1.109375 C 3.8125 -1.109375 4.25 -1.285156 4.625 -1.640625 Z M 4.625 -1.640625 "/></g></g></g></g></g></svg>